<svg id="Capa_1" enable-background="new 0 0 512.014 512.014" height="512" viewBox="0 0 512.014 512.014" width="512" xmlns="http://www.w3.org/2000/svg"><g><path d="m256.007 24.165c12.368-21.399 44.293-17.802 51.59 5.813 16.82-18.11 47.144-7.499 49.003 17.147 20.428-13.913 47.631 3.179 43.959 27.621 23.012-9.019 45.729 13.698 36.71 36.71 24.442-3.672 41.534 23.531 27.621 43.959 24.646 1.859 35.257 32.183 17.147 49.003 23.615 7.297 27.212 39.221 5.813 51.59 21.399 12.368 17.802 44.293-5.813 51.59 18.11 16.82 7.499 47.144-17.147 49.003 13.913 20.428-3.179 47.631-27.621 43.959 9.019 23.012-13.698 45.729-36.71 36.71 3.672 24.442-23.531 41.534-43.959 27.621-1.859 24.646-32.183 35.257-49.003 17.147-7.297 23.615-39.221 27.212-51.59 5.813-12.368 21.399-44.293 17.802-51.59-5.813-16.82 18.11-47.144 7.499-49.003-17.147-20.428 13.913-47.631-3.179-43.959-27.621-23.012 9.019-45.729-13.698-36.71-36.71-24.442 3.672-41.534-23.531-27.621-43.959-24.646-1.859-35.257-32.183-17.147-49.003-23.615-7.297-27.212-39.221-5.813-51.59-21.399-12.368-17.802-44.293 5.813-51.59-18.11-16.82-7.499-47.144 17.147-49.003-13.913-20.428 3.179-47.631 27.621-43.959-9.019-23.012 13.698-45.729 36.71-36.71-3.672-24.442 23.531-41.534 43.959-27.621 1.859-24.646 32.183-35.257 49.003-17.147 7.297-23.615 39.222-27.212 51.59-5.813z" fill="#fff"/><g><path d="m246.921 256.007c0-38.528 13.724-73.848 36.55-101.342 18.849-22.705 2.045-57.286-27.464-57.434-.27-.001.271-.002 0-.002-87.691 0-158.778 71.087-158.778 158.778 0 87.691 71.087 158.778 158.778 158.778.271 0 .541-.001.812-.002 29.509-.148 45.501-34.729 26.652-57.434-22.825-27.494-36.55-62.814-36.55-101.342z" fill="#ff926f"/><path d="m414.785 256.007c0-51.538-24.558-97.336-62.608-126.341-12.601-9.606-30.047-9.606-42.648 0-38.05 29.005-62.608 74.803-62.608 126.34 0 51.538 24.558 97.335 62.608 126.34 12.601 9.606 30.047 9.606 42.648 0 38.05-29.003 62.608-74.801 62.608-126.339z" fill="#daf092"/></g><g><path d="m358.239 121.714c-16.123-12.291-38.646-12.293-54.772 0-.911.694-1.806 1.409-2.702 2.122-.704-3.613-1.844-7.19-3.461-10.654-7.425-15.919-23.785-25.863-41.297-25.951v-.002c-93.064 0-168.778 75.714-168.778 168.778 0 39.348 13.835 77.653 38.955 107.857 1.978 2.378 4.825 3.606 7.694 3.606 2.253 0 4.521-.758 6.389-2.312 4.246-3.531 4.825-9.836 1.294-14.083-16.808-20.21-27.876-44.537-32.235-70.259 44.337 30.419 95.208 49.887 148.595 56.743 5.006 9.038 11.064 17.904 17.651 25.903.133.184-.147-.177 0 0 6.347 7.644 7.823 17.877 3.607 26.914-4.185 8.971-13.318 14.356-23.172 14.405v.002c-15.439 0-30.653-2.353-45.217-6.993-5.26-1.674-10.887 1.229-12.564 6.493-1.677 5.262 1.23 10.887 6.492 12.564 16.53 5.266 33.786 7.937 51.289 7.937v-.002c17.517-.088 33.872-10.032 41.297-25.951 1.615-3.463 2.765-7.037 3.469-10.648.894.711 1.786 1.423 2.694 2.115 8.063 6.147 17.724 9.219 27.387 9.219 9.66 0 19.324-3.073 27.386-9.218 20.227-15.419 36.975-35.529 48.433-58.156 12.019-23.736 18.113-49.353 18.113-76.138s-6.095-52.401-18.113-76.138c-11.459-22.625-28.207-42.735-48.434-58.153zm-102.232-14.483c9.849.049 18.987 5.435 23.172 14.405 4.216 9.038 2.944 18.997-3.402 26.641l.022.014c-8.077 9.729-15.074 20.342-20.764 31.579-5.064 10-9.062 20.337-12.01 30.951-32.867-16.112-62.453-37.521-88.141-63.835 26.562-24.655 62.109-39.757 101.123-39.757zm-114.853 54.307c28.333 28.887 61.1 52.194 97.595 69.426-1.214 8.216-1.828 16.571-1.828 25.044 0 20.759 3.677 40.811 10.92 59.834-51.037-8.645-99.259-29.61-140.595-61.22.325-35.301 12.996-67.705 33.908-93.084zm204.96 212.857c-8.987 6.851-21.537 6.848-30.522 0-37.286-28.423-58.671-71.574-58.671-118.388s21.385-89.965 58.671-118.388c4.493-3.425 9.877-5.137 15.261-5.137 5.385 0 10.769 1.712 15.262 5.137 37.286 28.423 58.671 71.573 58.671 118.388s-21.385 89.966-58.672 118.388z"/><path d="m511.76 227.19c-1.209-10.736-6.577-20.016-14.74-26.192 4.675-9.107 5.484-19.797 1.916-29.995s-10.867-18.05-20.199-22.256c2.53-9.919.941-20.521-4.807-29.669s-14.611-15.18-24.646-17.204c.26-10.233-3.648-20.216-11.288-27.856-7.641-7.64-17.614-11.55-27.855-11.288-2.023-10.035-8.056-18.897-17.204-24.646-9.147-5.748-19.748-7.336-29.669-4.807-4.206-9.333-12.059-16.631-22.257-20.2-10.196-3.568-20.888-2.757-29.994 1.917-6.178-8.163-15.458-13.531-26.194-14.741-10.732-1.21-20.977 1.958-28.815 8.542-7.838-6.583-18.083-9.754-28.815-8.542-10.736 1.209-20.017 6.578-26.194 14.74-9.106-4.674-19.797-5.484-29.994-1.916-10.198 3.568-18.051 10.867-22.257 20.2-9.92-2.531-20.521-.942-29.669 4.807-9.148 5.748-15.181 14.611-17.204 24.646-10.229-.239-20.215 3.648-27.855 11.288s-11.548 17.623-11.288 27.856c-10.034 2.024-18.897 8.056-24.646 17.204s-7.337 19.75-4.807 29.669c-9.332 4.206-16.631 12.058-20.199 22.256s-2.759 20.888 1.916 29.995c-8.163 6.177-13.531 15.457-14.74 26.192-1.21 10.736 1.959 20.979 8.542 28.817-6.583 7.839-9.752 18.081-8.542 28.817 1.209 10.736 6.577 20.016 14.74 26.192-4.675 9.107-5.484 19.797-1.916 29.995s10.867 18.05 20.199 22.256c-2.53 9.919-.941 20.521 4.807 29.669s14.611 15.18 24.646 17.204c-.26 10.233 3.648 20.216 11.288 27.856 7.641 7.64 17.615 11.553 27.855 11.288 2.023 10.035 8.056 18.897 17.204 24.646s19.75 7.337 29.669 4.807c4.206 9.333 12.059 16.631 22.257 20.2s20.889 2.758 29.994-1.917c6.178 8.163 15.458 13.531 26.194 14.741 10.733 1.21 20.977-1.958 28.815-8.542 6.738 5.66 15.253 8.796 24.331 8.796 1.481 0 2.979-.083 4.484-.253 10.736-1.209 20.017-6.578 26.194-14.74 9.106 4.673 19.797 5.484 29.994 1.916 10.198-3.568 18.051-10.867 22.257-20.2 9.921 2.531 20.521.942 29.669-4.807 9.148-5.748 15.181-14.611 17.204-24.646 10.252.251 20.216-3.648 27.855-11.288s11.548-17.623 11.288-27.856c10.034-2.024 18.897-8.056 24.646-17.204s7.337-19.75 4.807-29.669c9.332-4.206 16.631-12.058 20.199-22.256s2.759-20.888-1.916-29.995c8.163-6.177 13.531-15.457 14.74-26.192 1.21-10.736-1.959-20.979-8.542-28.817 6.583-7.84 9.752-18.082 8.542-28.818zm-28.914 37.475c6.502 3.758 9.881 10.458 9.04 17.92s-5.626 13.241-12.801 15.458c-3.412 1.054-6.003 3.848-6.797 7.329-.795 3.481.327 7.122 2.943 9.552 5.503 5.11 7.307 12.394 4.826 19.482s-8.432 11.657-15.92 12.222c-3.561.269-6.708 2.416-8.258 5.633s-1.266 7.017.744 9.968c4.228 6.208 4.366 13.709.371 20.068s-10.816 9.491-18.241 8.373c-3.527-.529-7.077.863-9.304 3.654-2.227 2.792-2.795 6.559-1.492 9.884 2.74 6.992 1.206 14.336-4.104 19.647-5.31 5.309-12.652 6.845-19.646 4.104-3.324-1.302-7.092-.734-9.884 1.492-2.792 2.227-4.186 5.772-3.654 9.304 1.115 7.426-2.015 14.245-8.374 18.241-6.358 3.996-13.862 3.857-20.066-.371-2.952-2.01-6.75-2.293-9.969-.745-3.217 1.549-5.364 4.697-5.633 8.257-.564 7.489-5.134 13.441-12.223 15.921-7.087 2.48-14.371.676-19.481-4.827-2.43-2.617-6.069-3.738-9.553-2.944-3.481.794-6.274 3.385-7.329 6.797-2.217 7.175-7.996 11.961-15.458 12.802-7.473.842-14.162-2.539-17.919-9.041-1.787-3.092-5.087-4.996-8.658-4.996s-6.871 1.904-8.658 4.996c-3.758 6.502-10.458 9.877-17.919 9.041-7.462-.841-13.241-5.626-15.458-12.802-1.055-3.412-3.848-6.002-7.329-6.797s-7.123.328-9.553 2.944c-5.111 5.503-12.393 7.306-19.481 4.827-7.089-2.48-11.658-8.432-12.223-15.921-.269-3.561-2.416-6.708-5.633-8.257-3.218-1.549-7.017-1.265-9.969.745-6.205 4.228-13.707 4.367-20.066.371s-9.489-10.814-8.374-18.241c.531-3.532-.862-7.078-3.654-9.304-2.791-2.226-6.558-2.794-9.884-1.492-6.992 2.741-14.336 1.206-19.646-4.104-5.311-5.311-6.845-12.655-4.104-19.647 1.303-3.325.734-7.092-1.492-9.884s-5.773-4.181-9.304-3.654c-7.433 1.114-14.246-2.014-18.241-8.373-3.995-6.358-3.856-13.86.371-20.068 2.01-2.951 2.294-6.75.744-9.968s-4.697-5.364-8.258-5.633c-7.488-.565-13.439-5.134-15.92-12.222s-.677-14.372 4.826-19.482c2.616-2.43 3.738-6.071 2.943-9.552-.794-3.481-3.385-6.275-6.797-7.329-7.175-2.217-11.96-7.996-12.801-15.458s2.538-14.162 9.04-17.92c3.092-1.787 4.996-5.087 4.996-8.658s-1.904-6.871-4.996-8.658c-6.502-3.758-9.881-10.458-9.04-17.92s5.626-13.241 12.801-15.458c3.412-1.054 6.003-3.848 6.797-7.329.795-3.481-.327-7.122-2.943-9.552-5.503-5.11-7.307-12.394-4.826-19.482s8.432-11.657 15.92-12.222c3.561-.269 6.708-2.416 8.258-5.633s1.266-7.017-.744-9.968c-4.228-6.208-4.366-13.709-.371-20.068 3.996-6.359 10.819-9.486 18.241-8.373 3.531.533 7.078-.862 9.304-3.654 2.227-2.792 2.795-6.559 1.492-9.884-2.74-6.992-1.206-14.336 4.104-19.647 5.309-5.309 12.651-6.846 19.646-4.104 3.326 1.303 7.093.734 9.884-1.492 2.792-2.227 4.186-5.772 3.654-9.304-1.115-7.426 2.015-14.245 8.374-18.241 6.358-3.996 13.861-3.857 20.066.371 2.953 2.01 6.751 2.294 9.969.745 3.217-1.549 5.364-4.697 5.633-8.257.564-7.489 5.134-13.441 12.223-15.921 7.087-2.48 14.37-.677 19.481 4.827 2.43 2.617 6.071 3.741 9.553 2.944 3.481-.794 6.274-3.385 7.329-6.797 2.217-7.175 7.996-11.961 15.458-12.802 7.47-.843 14.161 2.539 17.919 9.041 1.787 3.092 5.087 4.996 8.658 4.996s6.871-1.904 8.658-4.996c3.757-6.502 10.455-9.879 17.919-9.041 7.462.841 13.241 5.626 15.458 12.802 1.055 3.412 3.848 6.002 7.329 6.797 3.483.797 7.123-.328 9.553-2.944 5.11-5.503 12.392-7.308 19.481-4.827 7.089 2.48 11.658 8.432 12.223 15.921.269 3.561 2.416 6.708 5.633 8.257 3.219 1.55 7.019 1.266 9.969-.745 6.206-4.228 13.707-4.367 20.066-.371s9.489 10.814 8.374 18.241c-.531 3.532.862 7.078 3.654 9.304 2.792 2.228 6.56 2.795 9.884 1.492 6.991-2.741 14.336-1.206 19.646 4.104 5.311 5.311 6.845 12.655 4.104 19.647-1.303 3.325-.734 7.092 1.492 9.884s5.775 4.184 9.304 3.654c7.429-1.116 14.245 2.014 18.241 8.373 3.995 6.358 3.856 13.86-.371 20.068-2.01 2.951-2.294 6.75-.744 9.968s4.697 5.364 8.258 5.633c7.488.565 13.439 5.134 15.92 12.222s.677 14.372-4.826 19.482c-2.616 2.43-3.738 6.071-2.943 9.552.794 3.481 3.385 6.275 6.797 7.329 7.175 2.217 11.96 7.996 12.801 15.458s-2.538 14.162-9.04 17.92c-3.092 1.787-4.996 5.087-4.996 8.658s1.904 6.871 4.996 8.658z"/><circle cx="167.257" cy="387.684" r="10"/></g></g></svg>